<?xml version="1.0" standalone="no"?>
<!DOCTYPE svg PUBLIC "-//W3C//DTD SVG 1.1//EN" "http://www.w3.org/Graphics/SVG/1.1/DTD/svg11.dtd">
<svg xmlns="http://www.w3.org/2000/svg">
<metadata>Copyright (C) 2021 by original authors @ fontello.com</metadata>
<defs>
<font id="fontello" horiz-adv-x="1000" >
<font-face font-family="fontello" font-weight="400" font-stretch="normal" units-per-em="1000" ascent="850" descent="-150" />
<missing-glyph horiz-adv-x="1000" />
<glyph glyph-name="eye" unicode="&#xe740;" d="M0 350q6 49 64 110 79 80 176 129 129 60 260 60 137-2 260-60 103-53 176-129 64-73 64-110-6-49-64-109-79-80-176-129-129-61-260-61-137 2-260 61-103 53-176 129-64 72-64 109z m264 0q0-94 69-159t167-65 167 65 69 159-69 159-167 66-167-66-69-159z m86 1q0 60 44 102t106 42 106-42 44-102-44-102-106-43-106 43-44 102z" horiz-adv-x="1000" />

<glyph glyph-name="vertical-dots" unicode="&#xe800;" d="M125 100a125 125 0 1 0-125-125 125 125 0 0 0 125 125m0 375a125 125 0 1 0-125-125 125 125 0 0 0 125 125m0 375a125 125 0 1 0-125-125 125 125 0 0 0 125 125z" horiz-adv-x="250" />

<glyph glyph-name="star-outline" unicode="&#xe801;" d="M990 515l-295 26-116 272a61 61 0 0 1-112 0l-116-273-295-25a61 61 0 0 1-35-107l224-194-67-288a61 61 0 0 1 91-66l254 153 253-154a61 61 0 0 1 92 66l-68 289 225 194a61 61 0 0 1-35 107z m-467-388l-230-139 61 262-203 176 268 23 104 246 104-247 268-23-203-176 61-262z" horiz-adv-x="1046" />

<glyph glyph-name="information" unicode="&#xe802;" d="M450 500h100v100h-100m50-650a400 400 0 1 0 400 400 401 401 0 0 0-400-400m0 900a500 500 0 1 1 500-500 500 500 0 0 1-500 500m-50-750h100v300h-100z" horiz-adv-x="1000" />

<glyph glyph-name="pencil-outline" unicode="&#xe803;" d="M614 516l52-52-504-503h-51v51l503 504m200 334a56 56 0 0 1-38-16l-102-102 208-208 102 102a56 56 0 0 1 0 78l-130 130a55 55 0 0 1-40 16z m-200-177l-614-615v-208h208l615 614-209 209z" horiz-adv-x="1000" />

<glyph glyph-name="cog" unicode="&#xe804;" d="M486 550a200 200 0 1 0-200-200 200 200 0 0 0 200 200m0-100a100 100 0 1 1 100-100 100 100 0 0 1-100 100m-100-600a25 25 0 0 0-25 21l-18 133a347 347 0 0 0-84 49l-125-50a25 25 0 0 0-30 11l-100 173a25 25 0 0 0 6 32l105 83-3 48 3 50-105 82a25 25 0 0 0-6 32l100 173a25 25 0 0 0 30 11l125-50a362 362 0 0 0 84 49l18 132a25 25 0 0 0 25 21h200a25 25 0 0 0 25-21l19-132a362 362 0 0 0 84-49l125 50a25 25 0 0 0 30-11l100-173a25 25 0 0 0-6-32l-105-82 3-50-3-50 105-81a25 25 0 0 0 6-32l-100-173a25 25 0 0 0-30-11l-125 50a362 362 0 0 0-84-49l-18-133a25 25 0 0 0-26-21h-200m63 900l-19-130a275 275 0 0 1-151-89l-120 52-38-65 105-78a278 278 0 0 1 0-180l-106-78 38-65 122 52a272 272 0 0 1 150-88l19-131h76l18 131a276 276 0 0 1 151 88l121-52 37 65-106 78a279 279 0 0 1 0 180l106 78-38 65-120-52a271 271 0 0 1-152 88l-18 131z" horiz-adv-x="973" />

<glyph glyph-name="check" unicode="&#xe805;" d="M500 850a500 500 0 1 1 500-500 500 500 0 0 1-500 500z m-135-714l-180 179a50 50 0 0 0 71 71l144-144 344 344a50 50 0 0 0 71-71l-380-379a50 50 0 0 0-70 0z" horiz-adv-x="1000" />

<glyph glyph-name="check-outline" unicode="&#xe806;" d="M500 850a500 500 0 1 1 500-500 500 500 0 0 1-500 500z m0-900a400 400 0 1 0 400 400 401 401 0 0 0-400-400z m194 586l-294-294-94 94a50 50 0 0 1-70-71l129-129a50 50 0 0 1 71 0l329 329a50 50 0 0 1 0 71 50 50 0 0 1-71 0z" horiz-adv-x="1000" />

<glyph glyph-name="close" unicode="&#xe807;" d="M618 350l358 357a83 83 0 1 1-119 119l-357-358-357 358a83 83 0 0 1-118-119l358-357-358-357a83 83 0 1 1 118-118l357 358 357-358a83 83 0 1 1 119 118z" horiz-adv-x="1000" />

<glyph glyph-name="plus" unicode="&#xe808;" d="M929 279h-358v-358a71 71 0 0 0-142 0v358h-358a71 71 0 0 0 0 142h358v358a71 71 0 0 0 142 0v-358h358a71 71 0 0 0 0-142z" horiz-adv-x="1000" />

<glyph glyph-name="alert" unicode="&#xe809;" d="M1134 97l-404 669a181 181 0 0 1-304 0l-403-669a158 158 0 0 1-3-158 177 177 0 0 1 155-89h807a177 177 0 0 1 155 87 158 158 0 0 1-3 160z m-556-37a53 53 0 1 0 53 53 53 53 0 0 0-53-52z m53 211a53 53 0 0 0-105 0v211a53 53 0 1 0 105 0z" horiz-adv-x="1157" />

<glyph glyph-name="search" unicode="&#xe80a;" d="M405 850a405 405 0 0 0 323-651l256-257a54 54 0 0 0-71-81l-5 5-257 256a405 405 0 1 0-246 728z m0-108a297 297 0 1 1 298-297 297 297 0 0 1-298 297z" horiz-adv-x="1000" />

<glyph glyph-name="trash-outline" unicode="&#xe80b;" d="M56-39a111 111 0 0 1 111-111h444a111 111 0 0 1 111 111v556a111 111 0 0 1-111 111h-444a111 111 0 0 1-111-111z m166 556h334a56 56 0 0 0 55-56v-444a56 56 0 0 0-55-56h-334a56 56 0 0 0-55 56v444a56 56 0 0 0 55 56z m361 277l-39 40a56 56 0 0 1-39 16h-232a56 56 0 0 1-39-16l-40-40h-138a56 56 0 0 1 0-111h666a56 56 0 0 1 0 111z" horiz-adv-x="778" />

<glyph glyph-name="star" unicode="&#xe80c;" d="M523 13l254-154a61 61 0 0 1 91 66l-67 289 224 194a61 61 0 0 1-35 107l-295 25-116 273a61 61 0 0 1-112 0l-116-272-295-25a61 61 0 0 1-35-107l225-195-68-288a61 61 0 0 1 91-66z" horiz-adv-x="1046" />

<glyph glyph-name="plus-circle" unicode="&#xe80d;" d="M500 600a50 50 0 0 1-50-50v-150h-150a50 50 0 0 1 0-100h150v-150a50 50 0 0 1 100 0v150h150a50 50 0 0 1 0 100h-150v150a50 50 0 0 1-50 50z m0 250a500 500 0 1 1 500-500 500 500 0 0 1-500 500z m0-900a400 400 0 1 0 400 400 401 401 0 0 0-400-400z" horiz-adv-x="1000" />

<glyph glyph-name="user-edit" unicode="&#xe80e;" d="M0 83v-177h472v112h-360v65c0 38 185 124 360 124a690 690 0 0 0 167-22l90 89a856 856 0 0 1-257 45c-157 0-472-78-472-236m472 767a236 236 0 1 1 236-236 236 236 0 0 1-236 236m0-354a118 118 0 1 0 118 118 118 118 0 0 0-118-118m690-198l-59-59-121 118 59 59a32 32 0 0 0 46 0l75-75a32 32 0 0 0 0-46m-572-326l358 357 120-118-353-358h-125v119" horiz-adv-x="1172" />

<glyph glyph-name="user-check" unicode="&#xe80f;" d="M721-132l-127 128a61 61 0 0 0 0 85l0 1a60 60 0 0 0 86 0l84-84 272 273a61 61 0 0 0 86 0l0-1a61 61 0 0 0 0-85l-314-317a61 61 0 0 0-44-18 61 61 0 0 0-43 18z m-721 2v184c0 163 327 245 490 245a828 828 0 0 0 148-16l-103-103-45 2c-182 0-374-89-374-128v-68h380l117-116z m245 735a245 245 0 0 0 245 245 245 245 0 0 0 245-245 245 245 0 0 0-245-245 245 245 0 0 0-245 245z m123 0a123 123 0 0 1 122-123 123 123 0 0 1 123 123 123 123 0 0 1-123 123 123 123 0 0 1-122-123z" horiz-adv-x="1140" />

<glyph glyph-name="user" unicode="&#xe810;" d="M500 731a131 131 0 1 0-131-131 131 131 0 0 0 131 131m0-562c186 0 381-91 381-131v-69h-762v69c0 40 195 131 381 131m0 681a250 250 0 1 1 250-250 250 250 0 0 1-250 250z m0-562c-167 0-500-84-500-250v-188h1000v188c0 166-333 250-500 250z" horiz-adv-x="1000" />

<glyph glyph-name="burble-chat" unicode="&#xe811;" d="M852 703a498 498 0 0 1-811-548 53 53 0 0 0 4-32l-44-211a50 50 0 0 1 50-60h10l213 43a63 63 0 0 0 32-4 498 498 0 0 1 548 811z m41-417a399 399 0 0 0-548-303 163 163 0 0 1-62 13 171 171 0 0 1-28-2l-141-29 29 141a154 154 0 0 1-11 90 399 399 0 1 0 761 90z" horiz-adv-x="1001" />

<glyph glyph-name="mobile" unicode="&#xe812;" d="M488 850a113 113 0 0 0 112-112v-776a113 113 0 0 0-112-112h-375a113 113 0 0 0-113 112v776a113 113 0 0 0 113 112z m0-75h-375a38 38 0 0 1-38-37v-776a38 38 0 0 1 38-37h375a38 38 0 0 1 37 37v776a38 38 0 0 1-37 37z m-125-700a38 38 0 1 0 0-75l-125 0a38 38 0 1 0 0 75z" horiz-adv-x="600" />

<glyph glyph-name="identification" unicode="&#xe813;" d="M900 600h-250v150a100 100 0 0 1-100 100h-100a100 100 0 0 1-100-100v-150h-250a100 100 0 0 1-100-100v-550a100 100 0 0 1 100-100h800a100 100 0 0 1 100 100v550a100 100 0 0 1-100 100z m-550-250a75 75 0 1 0-75-75 75 75 0 0 0 75 75z m150-300h-300v38c0 50 100 75 150 75s150-25 150-75z m50 450h-100v250h100z m250-375h-200v75h200z m0 150h-200v75h200z" horiz-adv-x="1000" />

<glyph glyph-name="estadisticas" unicode="&#xe815;" d="M833 164l245 424v-738h-1078v970h108v-676l296 515 351-204 228 395 94-54-282-488-351 202-319-552h121l237 407 350-201z" horiz-adv-x="1078" />

<glyph glyph-name="pqr" unicode="&#xe816;" d="M834 601v249h-668v-249l-166-124v-510a117 117 0 0 1 117-117h766a117 117 0 0 1 117 117v510z m58-141l-58-43v86z m-136 312v-413l-256-191-256 191v413z m-590-355l-58 43 58 43z m717-489h-766a39 39 0 0 0-39 39v418l422-314 422 314v-418a39 39 0 0 0-39-39z m-434 643h-78a126 126 0 0 0 42 94 131 131 0 0 0 102 32 128 128 0 0 0 113-112 141 141 0 0 0-49-116c-6-6-12-11-17-16-22-21-23-23-23-35v-2h-78v2a115 115 0 0 0 48 92c5 5 9 9 15 14 20 21 28 36 27 52a50 50 0 0 1-45 43 52 52 0 0 1-41-12 47 47 0 0 1-16-36z m12-215h78v-78h-78z" horiz-adv-x="1000" />

<glyph glyph-name="user-driver" unicode="&#xe817;" d="M1000-11l-2 9a46 46 0 1 1-90-17 35 35 0 0 0-7-28 38 38 0 0 0-27-11h-82a293 293 0 0 1-583-1h-84a35 35 0 0 0-23 9 32 32 0 0 0-10 23 34 34 0 0 0 1 9 418 418 0 0 0 750 150 47 47 0 0 1 28-23 49 49 0 0 1 39 6 45 45 0 0 1 19 29 52 52 0 0 1-9 38 510 510 0 0 1-249 191 258 258 0 0 1 91 266 275 275 0 0 1-229 209l-12 2-45 0c-5-2-10-3-18-4a272 272 0 0 1-46-12 269 269 0 0 1-165-342 273 273 0 0 1 83-119c-5-2-10-4-15-6-18-8-35-15-52-24a495 495 0 0 1-260-344 121 121 0 0 1 24-102 123 123 0 0 1 96-47h0q189 0 377 0t377 0a125 125 0 0 1 122 104l1 4z m-383 90l-70-50a77 77 0 0 0-95 1q-28 20-56 40l-13 9a200 200 0 0 0 234 0z m82-137h-120a388 388 0 0 1 60 40c12 9 25 19 39 27a171 171 0 0 0 21-67z m-279 0h-118a189 189 0 0 0 20 67c14-8 27-18 39-27a350 350 0 0 1 59-40z m-97 630v9a173 173 0 1 0 0-9z" horiz-adv-x="1000" />

<glyph glyph-name="flag" unicode="&#xe818;" d="M433 732l24-117h308v-353h-198l-23 117h-426v353h315m96 118h-529v-1000h118v412h329l24-118h411v588h-329" horiz-adv-x="882" />

<glyph glyph-name="car-front" unicode="&#xe819;" d="M793-150v73a61 61 0 0 1 61 61v25a37 37 0 0 0 37 37h48a37 37 0 0 1 37 36v178a109 109 0 0 1-61 98l-16 8a37 37 0 0 0-19 23l-54 192-1 2a61 61 0 0 1-59 48h-481a61 61 0 0 1-59-48 4 4 0 0 0 0-2l-57-192a37 37 0 0 0-18-23l-17-8a109 109 0 0 1-61-98v-178a37 37 0 0 1 37-37h49a37 37 0 0 0 36-37v-24a61 61 0 0 1 122 0v24a37 37 0 0 0 37 37h342a37 37 0 0 0 36-37v-24a61 61 0 0 1 61-61v-74a134 134 0 0 0-134 123h-269a134 134 0 0 0-267 0h-13a110 110 0 0 0-110 110v178a182 182 0 0 0 101 163l3 1 51 177a134 134 0 0 0 130 103h481a133 133 0 0 0 130-104l49-176 3-1a182 182 0 0 0 101-163v-178a110 110 0 0 0-110-110h-13a134 134 0 0 0-133-122z m-122 781h-293a37 37 0 0 0-36 43l25 121a67 67 0 0 0 64 55h187a67 67 0 0 0 64-55l25-121a37 37 0 0 0-36-44z m-248 73h203l-14 73h-175z m-118-330h439m0-36h-439a37 37 0 0 0 0 73h439a37 37 0 0 0 0-73z" horiz-adv-x="1049" />

<glyph glyph-name="eye-off" unicode="&#xe828;" d="M0 326q6 49 64 110 79 80 176 128 129 61 260 61 29 0 59-2l74 129q10 16 23 18 4 0 8-2l51-32q17-7 2-33l-57-101-47-79-41-72-144-250-41-72-47-80-57-100q-15-25-31-15l-53 31q-15 8 0 33l49 86-8 4q-103 53-176 129-64 72-64 109z m264 0q0-74 47-133l48 84q-9 24-9 49 0 51 34 91t85 50l49 84-18 0q-98 0-167-66t-69-159z m177-295l41 71 18 0q98 0 167 65t69 159q0 74-47 133l63 109q2-2 4-3t4-1q103-52 176-128 64-73 64-110-6-49-64-109-79-80-176-129-129-61-260-61-25 0-59 4z m90 155l110 189q9-25 9-49 0-51-34-90t-85-50z" horiz-adv-x="1000" />

<glyph glyph-name="down-open" unicode="&#xf004;" d="M0 533q0 25 18 43t44 18 42-18l305-303 304 303q18 18 43 18t43-18q18-18 18-43t-18-43l-390-391-391 391q-18 19-18 43z" horiz-adv-x="817.4" />

<glyph glyph-name="up-open" unicode="&#xf005;" d="M0 167q0 26 18 43l391 391 390-391q17-17 17-43 0-26-17-44-18-17-44-17t-43 17l-303 305-305-305q-18-17-43-17t-43 17q-18 18-18 44z" horiz-adv-x="816.9" />

<glyph glyph-name="right-open" unicode="&#xf006;" d="M0 0q0 25 18 43l305 304-305 304q-18 18-18 44t18 43 44 18 43-18l390-391-390-391q-19-18-43-18t-44 18q-18 18-18 44z" horiz-adv-x="495.1" />

<glyph glyph-name="left-open" unicode="&#xf007;" d="M0 353l391 391q18 18 43 18 24 0 43-18 18-18 18-44t-18-43l-304-304 304-305q18-17 18-43t-18-43q-18-18-43-18t-43 18z" horiz-adv-x="495.1" />

<glyph glyph-name="menu" unicode="&#xf0c9;" d="M857 100v-71q0-15-10-25t-26-11h-785q-15 0-25 11t-11 25v71q0 15 11 25t25 11h785q15 0 26-11t10-25z m0 286v-72q0-14-10-25t-26-10h-785q-15 0-25 10t-11 25v72q0 14 11 25t25 10h785q15 0 26-10t10-25z m0 285v-71q0-14-10-25t-26-11h-785q-15 0-25 11t-11 25v71q0 15 11 26t25 10h785q15 0 26-10t10-26z" horiz-adv-x="857.1" />
</font>
</defs>
</svg>
